<?xml version="1.0" encoding="utf-8"?>
<!-- Generator: Adobe Illustrator 23.0.1, SVG Export Plug-In . SVG Version: 6.00 Build 0)  -->
<svg version="1.1" id="Layer_1" xmlns="http://www.w3.org/2000/svg" xmlns:xlink="http://www.w3.org/1999/xlink" x="0px" y="0px"
	 viewBox="0 0 242.5 45.83" style="enable-background:new 0 0 242.5 45.83;" xml:space="preserve">
<style type="text/css">
	.st0{fill:#FFFFFF;}
</style>
<g>
	<path class="st0" d="M4.06,40.73V5.1h30c7.5,0,11.25,3.12,11.25,9.38v26.25H34.06V14.48h-3.75v26.25H19.06V14.48h-3.75v26.25H4.06z
		"/>
	<path class="st0" d="M62.19,40.73c-8.75,0-13.13-3.75-13.13-11.25v-7.5c0-7.5,4.38-11.25,13.13-11.25h3.75
		c8.75,0,13.13,3.75,13.13,11.25v7.5c0,7.5-4.38,11.25-13.13,11.25H62.19z M62.19,18.23c-2.5,0-3.75,1.25-3.75,3.75v7.5
		c0,2.5,1.25,3.75,3.75,3.75h3.75c2.5,0,3.75-1.25,3.75-3.75v-7.5c0-2.5-1.25-3.75-3.75-3.75H62.19z"/>
	<path class="st0" d="M82.81,20.1v-9.38h9.38v9.38c0,8.75,1.88,13.12,5.63,13.12s5.63-4.37,5.63-13.12v-9.38h9.38v9.38
		c0,13.75-5,20.62-15,20.62C87.81,40.73,82.81,33.85,82.81,20.1z"/>
	<path class="st0" d="M116.56,9.79c0-1.28,0.45-2.38,1.36-3.3c0.91-0.92,2.02-1.38,3.33-1.38c1.28,0,2.38,0.46,3.3,1.38
		c0.92,0.92,1.38,2.02,1.38,3.3c0,1.31-0.46,2.42-1.38,3.33c-0.92,0.91-2.02,1.36-3.3,1.36c-1.31,0-2.42-0.45-3.33-1.36
		C117.01,12.21,116.56,11.1,116.56,9.79z M116.56,40.73v-22.5h9.38v22.5H116.56z"/>
	<path class="st0" d="M159.69,33.23v7.5h-20.63c-6.25,0-9.38-3.12-9.38-9.37v-9.38c0-7.5,4.38-11.25,13.13-11.25h3.75
		c8.75,0,13.13,3.75,13.13,11.25v7.5h-20.63v1.88c0,1.25,0.63,1.87,1.88,1.87H159.69z M150.31,21.98c0-2.5-1.25-3.75-3.75-3.75
		h-3.75c-2.5,0-3.75,1.25-3.75,3.75h7.5H150.31z"/>
	<path class="st0" d="M163.44,40.73V5.1h20.63c10,0,15,4.38,15,13.13v9.38c0,8.75-5,13.12-15,13.12H163.44z M174.69,14.48v16.88
		h9.38c2.5,0,3.75-1.25,3.75-3.75v-9.38c0-2.5-1.25-3.75-3.75-3.75H174.69z"/>
	<path class="st0" d="M202.81,40.73V5.1h26.25c6.25,0,9.38,3.12,9.38,9.38v16.88c0,6.25-3.13,9.37-9.38,9.37H202.81z M214.06,18.23
		h13.13v-3.75h-13.13V18.23z M214.06,31.35h13.13V27.6h-13.13V31.35z"/>
</g>
</svg>
