<?xml version="1.0" encoding="utf-8"?>
<!-- Generator: Adobe Illustrator 23.0.1, SVG Export Plug-In . SVG Version: 6.00 Build 0)  -->
<svg version="1.1" id="Layer_1" xmlns="http://www.w3.org/2000/svg" xmlns:xlink="http://www.w3.org/1999/xlink" x="0px" y="0px"
	 viewBox="0 0 612 792" style="enable-background:new 0 0 612 792;" xml:space="preserve">
<style type="text/css">
	.st0{stroke:#FFFFFF;stroke-miterlimit:10;}
	.st1{fill:#B7B7B7;}
</style>
<rect x="56" y="21" class="st0" width="500" height="750"/>
<g>
	<path class="st1" d="M248.58,300.47v-74.14h10.45l23.76,37.51c5.5,8.69,9.79,16.5,13.31,24.09l0.22-0.11
		c-0.88-9.9-1.1-18.92-1.1-30.47v-31.02h9.02v74.14h-9.68l-23.54-37.62c-5.17-8.25-10.12-16.72-13.86-24.75l-0.33,0.11
		c0.55,9.35,0.77,18.26,0.77,30.58v31.68H248.58z"/>
	<path class="st1" d="M368.81,273.41c0,19.69-13.64,28.27-26.51,28.27c-14.41,0-25.52-10.56-25.52-27.39
		c0-17.82,11.66-28.27,26.4-28.27C358.47,246.01,368.81,257.12,368.81,273.41z M326.57,273.95c0,11.66,6.71,20.46,16.17,20.46
		c9.24,0,16.17-8.69,16.17-20.68c0-9.02-4.51-20.46-15.95-20.46C331.52,253.27,326.57,263.83,326.57,273.95z"/>
	<path class="st1" d="M180.16,358.32v74.14h-9.57v-74.14H180.16z"/>
	<path class="st1" d="M197.65,393.64c0-5.5-0.11-10.01-0.44-14.41h8.47l0.44,8.58h0.33c2.97-5.06,7.92-9.79,16.72-9.79
		c7.26,0,12.76,4.4,15.07,10.67h0.22c1.65-2.97,3.74-5.28,5.94-6.93c3.19-2.42,6.71-3.74,11.77-3.74c7.04,0,17.49,4.62,17.49,23.1
		v31.35h-9.46v-30.14c0-10.23-3.74-16.39-11.55-16.39c-5.5,0-9.79,4.07-11.44,8.8c-0.44,1.32-0.77,3.08-0.77,4.84v32.89h-9.46v-31.9
		c0-8.47-3.74-14.63-11.11-14.63c-6.05,0-10.45,4.84-11.99,9.68c-0.55,1.43-0.77,3.08-0.77,4.73v32.12h-9.46V393.64z"/>
	<path class="st1" d="M318.87,432.47l-0.77-6.71h-0.33c-2.97,4.18-8.69,7.92-16.28,7.92c-10.78,0-16.28-7.59-16.28-15.29
		c0-12.87,11.44-19.91,32.01-19.8v-1.1c0-4.4-1.21-12.32-12.1-12.32c-4.95,0-10.12,1.54-13.86,3.96l-2.2-6.38
		c4.4-2.86,10.78-4.73,17.49-4.73c16.28,0,20.24,11.11,20.24,21.78v19.91c0,4.62,0.22,9.13,0.88,12.76H318.87z M317.44,405.3
		c-10.56-0.22-22.55,1.65-22.55,11.99c0,6.27,4.18,9.24,9.13,9.24c6.93,0,11.33-4.4,12.87-8.91c0.33-0.99,0.55-2.09,0.55-3.08V405.3
		z"/>
	<path class="st1" d="M388.28,379.22c-0.22,3.85-0.44,8.14-0.44,14.63v30.91c0,12.21-2.42,19.69-7.59,24.31
		c-5.17,4.84-12.65,6.38-19.36,6.38c-6.38,0-13.42-1.54-17.71-4.4l2.42-7.37c3.52,2.2,9.02,4.18,15.62,4.18
		c9.9,0,17.16-5.17,17.16-18.59v-5.94h-0.22c-2.97,4.95-8.69,8.91-16.94,8.91c-13.2,0-22.66-11.22-22.66-25.96
		c0-18.04,11.77-28.27,23.98-28.27c9.24,0,14.3,4.84,16.61,9.24h0.22l0.44-8.03H388.28z M378.27,400.24c0-1.65-0.11-3.08-0.55-4.4
		c-1.76-5.61-6.49-10.23-13.53-10.23c-9.24,0-15.84,7.81-15.84,20.13c0,10.45,5.28,19.14,15.73,19.14c5.94,0,11.33-3.74,13.42-9.9
		c0.55-1.65,0.77-3.52,0.77-5.17V400.24z"/>
	<path class="st1" d="M409.29,407.6c0.22,13.09,8.58,18.48,18.26,18.48c6.93,0,11.11-1.21,14.74-2.75l1.65,6.93
		c-3.41,1.54-9.24,3.3-17.71,3.3c-16.39,0-26.18-10.78-26.18-26.84s9.46-28.71,24.97-28.71c17.38,0,22,15.29,22,25.08
		c0,1.98-0.22,3.52-0.33,4.51H409.29z M437.67,400.68c0.11-6.16-2.53-15.73-13.42-15.73c-9.79,0-14.08,9.02-14.85,15.73H437.67z"/>
	<path class="st1" d="M117.52,541.15l-7.7,23.32h-9.9l25.19-74.14h11.55l25.3,74.14h-10.23l-7.92-23.32H117.52z M141.83,533.66
		l-7.26-21.34c-1.65-4.84-2.75-9.24-3.85-13.53h-0.22c-1.1,4.4-2.31,8.91-3.74,13.42l-7.26,21.45H141.83z"/>
	<path class="st1" d="M173.95,511.23l10.45,29.92c1.76,4.84,3.19,9.24,4.29,13.64h0.33c1.21-4.4,2.75-8.8,4.51-13.64l10.34-29.92
		h10.12l-20.9,53.24h-9.24l-20.24-53.24H173.95z"/>
	<path class="st1" d="M252.16,564.47l-0.77-6.71h-0.33c-2.97,4.18-8.69,7.92-16.28,7.92c-10.78,0-16.28-7.59-16.28-15.29
		c0-12.87,11.44-19.91,32.01-19.8v-1.1c0-4.4-1.21-12.32-12.1-12.32c-4.95,0-10.12,1.54-13.86,3.96l-2.2-6.38
		c4.4-2.86,10.78-4.73,17.49-4.73c16.28,0,20.24,11.11,20.24,21.78v19.91c0,4.62,0.22,9.13,0.88,12.76H252.16z M250.73,537.3
		c-10.56-0.22-22.55,1.65-22.55,11.99c0,6.27,4.18,9.24,9.13,9.24c6.93,0,11.33-4.4,12.87-8.91c0.33-0.99,0.55-2.09,0.55-3.08V537.3
		z"/>
	<path class="st1" d="M286.48,496.27c0.11,3.3-2.31,5.94-6.16,5.94c-3.41,0-5.83-2.64-5.83-5.94c0-3.41,2.53-6.05,6.05-6.05
		C284.17,490.21,286.48,492.86,286.48,496.27z M275.7,564.47v-53.24h9.68v53.24H275.7z"/>
	<path class="st1" d="M301.44,486.36h9.68v78.1h-9.68V486.36z"/>
	<path class="st1" d="M356.88,564.47l-0.77-6.71h-0.33c-2.97,4.18-8.69,7.92-16.28,7.92c-10.78,0-16.28-7.59-16.28-15.29
		c0-12.87,11.44-19.91,32.01-19.8v-1.1c0-4.4-1.21-12.32-12.1-12.32c-4.95,0-10.12,1.54-13.86,3.96l-2.2-6.38
		c4.4-2.86,10.78-4.73,17.49-4.73c16.28,0,20.24,11.11,20.24,21.78v19.91c0,4.62,0.22,9.13,0.88,12.76H356.88z M355.44,537.3
		c-10.56-0.22-22.55,1.65-22.55,11.99c0,6.27,4.18,9.24,9.13,9.24c6.93,0,11.33-4.4,12.87-8.91c0.33-0.99,0.55-2.09,0.55-3.08V537.3
		z"/>
	<path class="st1" d="M379.97,564.47c0.22-3.63,0.44-9.02,0.44-13.75v-64.35h9.57v33.44h0.22c3.41-5.94,9.57-9.79,18.15-9.79
		c13.2,0,22.55,11,22.44,27.17c0,19.03-11.99,28.49-23.87,28.49c-7.7,0-13.86-2.97-17.82-10.01h-0.33l-0.44,8.8H379.97z
		 M389.98,543.12c0,1.21,0.22,2.42,0.44,3.52c1.87,6.71,7.48,11.33,14.52,11.33c10.12,0,16.17-8.25,16.17-20.46
		c0-10.67-5.5-19.8-15.84-19.8c-6.6,0-12.76,4.51-14.74,11.88c-0.22,1.1-0.55,2.42-0.55,3.96V543.12z"/>
	<path class="st1" d="M443,486.36h9.68v78.1H443V486.36z"/>
	<path class="st1" d="M474.35,539.61c0.22,13.09,8.58,18.48,18.26,18.48c6.93,0,11.11-1.21,14.74-2.75l1.65,6.93
		c-3.41,1.54-9.24,3.3-17.71,3.3c-16.39,0-26.18-10.78-26.18-26.84c0-16.06,9.46-28.71,24.97-28.71c17.38,0,22,15.29,22,25.08
		c0,1.98-0.22,3.52-0.33,4.51H474.35z M502.73,532.68c0.11-6.16-2.53-15.73-13.42-15.73c-9.79,0-14.08,9.02-14.85,15.73H502.73z"/>
</g>
</svg>
