<?xml version="1.0" encoding="utf-8"?>
<!-- Generator: Adobe Illustrator 23.0.1, SVG Export Plug-In . SVG Version: 6.00 Build 0)  -->
<svg version="1.1" xmlns="http://www.w3.org/2000/svg" xmlns:xlink="http://www.w3.org/1999/xlink" x="0px" y="0px"
	 viewBox="0 0 1280 720" style="enable-background:new 0 0 1280 720;" xml:space="preserve">
<style type="text/css">
	.st0{fill:#FFFFFF;}
</style>
<g id="Layer_1">
	<rect width="1280" height="720"/>
</g>
<g id="Layer_2">
	<g>
		<g>
			<g>
				<path class="st0" d="M151.13,424.67c0,2.75,0,5.2,0,7.64c0,2.3,0,4.61,0,7.28c-4.69,0-8.92,0-13.9,0c0-2.19,0-4.3,0-6.41
					c0-99.97,0-199.95,0-299.92c0-6.96,0-6.96,7.01-6.95c2.12,0,4.24,0,6.88,0c0,5.4,0,10.17,0,15.32c11.39,0,22.25,0,33.6,0
					c0-4.99,0-9.76,0-14.92c4.72,0,8.96,0,13.83,0c0,9.29,0,18.5,0,27.97c59.69,0,118.75,0,178.27,0c0-9.24,0-18.33,0-27.89
					c4.8,0,9.16,0,14.01,0c0,4.97,0,9.73,0,14.86c11.35,0,22.22,0,33.63,0c0-5.02,0-9.79,0-15.31c4.12,0,7.73-0.19,11.3,0.13
					c0.96,0.09,2.21,1.56,2.58,2.65c0.45,1.35,0.13,2.96,0.13,4.46c0,99.64,0,199.28,0,298.92c0,2.29,0,4.58,0,7.17
					c-4.83,0-9.06,0-13.9,0c0-4.08,0.23-7.88-0.13-11.63c-0.13-1.3-1.69-3.51-2.64-3.54c-10.12-0.26-20.24-0.16-30.86-0.16
					c0,5.34,0,10.1,0,15.24c-4.72,0-8.95,0-13.74,0c0-9.09,0-18.16,0-27.65c-59.61,0-118.66,0-178.24,0c0,8.94,0,18.02,0,27.57
					c-4.73,0-8.95,0-13.87,0c0-4.67,0-9.56,0-14.81C173.52,424.67,162.64,424.67,151.13,424.67z M376.64,379.37
					c0-64.41,0-128.29,0-192.17c-59.44,0-118.51,0-177.57,0c0,64.2,0,128.07,0,192.17C258.39,379.37,317.32,379.37,376.64,379.37z
					 M184.66,179.15c-10.7,0-20.81-0.06-30.92,0.1c-0.86,0.01-2.42,1.46-2.44,2.27c-0.19,7.08-0.11,14.17-0.11,21.21
					c11.6,0,22.46,0,33.48,0C184.66,194.82,184.66,187.38,184.66,179.15z M424.57,202.96c0-4.11,0-7.57,0-11.04
					c0-12.8,0-12.8-12.65-12.8c-6.92,0-13.84,0-20.72,0c0,8.44,0,16.01,0,23.84C402.32,202.96,413.07,202.96,424.57,202.96z
					 M184.57,325.77c0-8.24,0-15.78,0-23.59c-11.15,0-22.01,0-33.39,0c0,7.22-0.1,14.16,0.13,21.09c0.03,0.86,1.8,2.37,2.79,2.38
					C164.04,325.84,173.99,325.77,184.57,325.77z M390.85,302.13c0,7.17-0.12,13.95,0.13,20.71c0.04,1.01,1.83,2.78,2.85,2.81
					c9.3,0.22,18.61,0.2,27.9,0.01c0.95-0.02,2.64-1.62,2.67-2.53c0.23-6.92,0.12-13.85,0.12-21
					C413.16,302.13,402.41,302.13,390.85,302.13z M151.38,386.94c10.65,0,20.75,0.06,30.85-0.1c0.88-0.01,2.46-1.4,2.48-2.18
					c0.19-7.06,0.11-14.13,0.11-21.21c-11.58,0-22.41,0-33.45,0C151.38,371.3,151.38,378.71,151.38,386.94z M424.14,386.69
					c0-7.95,0-15.62,0-23.23c-11.29,0-22.14,0-32.89,0c0,8,0,15.54,0,23.23C402.38,386.69,413.1,386.69,424.14,386.69z
					 M151.17,240.83c0,7.2-0.15,13.98,0.17,20.73c0.04,0.95,2.28,2.5,3.57,2.57c5.47,0.29,10.95,0.13,16.44,0.13
					c4.39,0,8.77,0,13.2,0c0-8.36,0-15.75,0-23.44C173.49,240.83,162.76,240.83,151.17,240.83z M391.2,240.86
					c0,7.86,0,15.39,0,22.98c11.21,0,22.05,0,33.07,0c0-7.84,0-15.24,0-22.98C413.11,240.86,402.26,240.86,391.2,240.86z"/>
				<path class="st0" d="M236.8,331.49c0-13.4,0-26.33,0-39.73c-3.36,0-6.29,0-9.56,0c0-3.03,0-5.57,0-8.39
					c1.71-0.15,3.33-0.29,5.62-0.48c-4.48-7.2-7.06-14.6-5.66-22.81c1.37-8.05,5.19-14.7,11.9-19.51
					c12.19-8.74,25.12-7.56,39.14,3.13c5.56-2.76,10.58-6.21,16.14-7.81c12.23-3.53,24.61,1.65,31.78,12.29
					c6.65,9.88,6.33,23.28-0.4,33.42c-1.77,2.67-2.5,6.02-3.7,9.07c0.53,0.43,1.07,0.87,1.6,1.3c8.13-3.98,16.25-7.97,24.91-12.22
					c0,15.38,0,29.78,0,45.13c-8.64-4.22-16.79-8.19-25.76-12.57c0,7.12,0,13.04,0,19.19C294.1,331.49,265.86,331.49,236.8,331.49z
					 M256.73,277.93c7.3-0.09,13.18-6.1,13.18-13.46c0-7.29-6-13.41-13.23-13.49c-7.22-0.08-13.79,6.58-13.6,13.79
					C243.27,271.96,249.56,278.02,256.73,277.93z M301.12,277.96c7.25,0.1,13.46-5.85,13.66-13.09c0.21-7.34-6.12-13.88-13.43-13.89
					c-7.08-0.01-13.37,6.26-13.44,13.41C287.83,271.54,293.98,277.86,301.12,277.96z"/>
			</g>
		</g>
		<g>
			<path class="st0" d="M615.22,138.36v108h-8.93c-1.35,0-2.5-0.24-3.45-0.71c-0.95-0.47-1.85-1.26-2.7-2.36l-59.32-76.2
				c0.15,1.45,0.26,2.89,0.34,4.31c0.07,1.42,0.11,2.74,0.11,3.94v71.02h-15.45v-108h9.15c0.75,0,1.39,0.04,1.91,0.11
				c0.52,0.08,1.01,0.21,1.46,0.41c0.45,0.2,0.87,0.5,1.27,0.9c0.4,0.4,0.83,0.9,1.27,1.5l59.4,76.28
				c-0.15-1.55-0.26-3.08-0.34-4.58c-0.07-1.5-0.11-2.9-0.11-4.2v-70.42H615.22z"/>
			<path class="st0" d="M668.7,168.66c5.65,0,10.76,0.93,15.34,2.78c4.58,1.85,8.48,4.48,11.7,7.88c3.23,3.4,5.71,7.53,7.46,12.38
				c1.75,4.85,2.63,10.3,2.63,16.35c0,6.05-0.88,11.5-2.63,16.35c-1.75,4.85-4.24,8.99-7.46,12.41c-3.22,3.43-7.13,6.06-11.7,7.91
				c-4.57,1.85-9.69,2.77-15.34,2.77c-5.7,0-10.84-0.93-15.41-2.77c-4.57-1.85-8.49-4.49-11.74-7.91c-3.25-3.42-5.75-7.56-7.5-12.41
				c-1.75-4.85-2.63-10.3-2.63-16.35c0-6.05,0.87-11.5,2.63-16.35c1.75-4.85,4.25-8.97,7.5-12.38c3.25-3.4,7.16-6.02,11.74-7.88
				C657.86,169.59,663,168.66,668.7,168.66z M668.7,234.88c6.9,0,12.04-2.31,15.41-6.94c3.38-4.62,5.06-11.24,5.06-19.84
				c0-8.6-1.69-15.24-5.06-19.91c-3.38-4.67-8.51-7.01-15.41-7.01c-7,0-12.2,2.34-15.6,7.01c-3.4,4.68-5.1,11.31-5.1,19.91
				c0,8.6,1.7,15.21,5.1,19.84C656.5,232.57,661.7,234.88,668.7,234.88z"/>
			<path class="st0" d="M779.25,246.36h-17.63v-108h17.63V246.36z"/>
			<path class="st0" d="M800.77,246.36v-76.5h9.75c2.2,0,3.6,1.03,4.2,3.08l1.05,6.67c1.4-1.6,2.85-3.06,4.35-4.39
				c1.5-1.32,3.11-2.47,4.84-3.45c1.72-0.98,3.57-1.74,5.55-2.29c1.97-0.55,4.11-0.83,6.41-0.83c2.45,0,4.7,0.35,6.75,1.05
				c2.05,0.7,3.86,1.7,5.44,3c1.58,1.3,2.94,2.88,4.09,4.73c1.15,1.85,2.1,3.93,2.85,6.22c1.15-2.65,2.6-4.92,4.35-6.82
				c1.75-1.9,3.7-3.45,5.85-4.65c2.15-1.2,4.44-2.09,6.86-2.66c2.42-0.57,4.89-0.86,7.39-0.86c4.1,0,7.76,0.65,10.99,1.95
				c3.23,1.3,5.95,3.19,8.17,5.66s3.91,5.51,5.06,9.11s1.73,7.7,1.73,12.3v48.67h-16.13v-48.67c0-5.4-1.16-9.46-3.49-12.19
				c-2.33-2.72-5.76-4.09-10.31-4.09c-2.05,0-3.98,0.35-5.78,1.05c-1.8,0.7-3.38,1.73-4.72,3.07c-1.35,1.35-2.41,3.04-3.19,5.06
				c-0.78,2.03-1.16,4.39-1.16,7.09v48.67h-16.13v-48.67c0-5.6-1.13-9.71-3.38-12.34s-5.55-3.94-9.9-3.94c-3,0-5.78,0.76-8.33,2.29
				c-2.55,1.53-4.9,3.61-7.05,6.26v56.4H800.77z"/>
			<path class="st0" d="M923.47,180.51c8.65-8.05,18.95-12.07,30.9-12.07c4.4,0,8.31,0.71,11.74,2.14c3.42,1.43,6.3,3.44,8.63,6.04
				c2.32,2.6,4.1,5.69,5.32,9.26c1.22,3.58,1.84,7.54,1.84,11.89v48.6h-7.2c-1.55,0-2.73-0.24-3.52-0.71
				c-0.8-0.47-1.48-1.44-2.03-2.89l-1.58-6.23c-1.95,1.75-3.88,3.31-5.77,4.69c-1.9,1.38-3.86,2.54-5.89,3.49
				c-2.03,0.95-4.2,1.66-6.53,2.14c-2.33,0.47-4.89,0.71-7.69,0.71c-3.1,0-5.99-0.43-8.66-1.28c-2.68-0.85-4.99-2.14-6.94-3.86
				s-3.49-3.86-4.61-6.41c-1.13-2.55-1.69-5.55-1.69-9c0-2.95,0.79-5.82,2.36-8.63c1.58-2.8,4.17-5.31,7.8-7.54
				c3.63-2.22,8.4-4.06,14.33-5.51c5.92-1.45,13.24-2.27,21.94-2.48v-5.1c0-5.5-1.18-9.6-3.53-12.3c-2.35-2.7-5.8-4.05-10.35-4.05
				c-3.1,0-5.7,0.39-7.8,1.16c-2.1,0.78-3.93,1.61-5.48,2.51s-2.92,1.74-4.13,2.51c-1.2,0.78-2.47,1.16-3.83,1.16
				c-1.1,0-2.04-0.29-2.81-0.86c-0.78-0.57-1.41-1.29-1.91-2.14L923.47,180.51z M966.22,212.91c-5.75,0.2-10.6,0.66-14.55,1.39
				c-3.95,0.73-7.15,1.65-9.6,2.77c-2.45,1.13-4.21,2.46-5.29,4.01c-1.08,1.55-1.61,3.25-1.61,5.1c0,1.8,0.29,3.34,0.86,4.61
				c0.57,1.27,1.37,2.33,2.4,3.15c1.02,0.83,2.22,1.43,3.6,1.8c1.37,0.38,2.89,0.56,4.54,0.56c4.2,0,7.81-0.79,10.84-2.36
				c3.02-1.57,5.96-3.86,8.81-6.86V212.91z"/>
			<path class="st0" d="M1066.65,172.63v6c0,2-1.2,3.23-3.6,3.68l-7.65,1.27c1.3,2.9,1.95,6.13,1.95,9.67
				c0,3.75-0.74,7.15-2.21,10.2c-1.48,3.05-3.51,5.65-6.11,7.8c-2.6,2.15-5.7,3.8-9.3,4.95c-3.6,1.15-7.5,1.73-11.7,1.73
				c-1.6,0-3.16-0.09-4.69-0.26c-1.53-0.17-3.01-0.41-4.46-0.71c-1.45,0.85-2.53,1.75-3.22,2.7c-0.7,0.95-1.05,1.93-1.05,2.93
				c0,1.65,0.72,2.88,2.17,3.67c1.45,0.8,3.36,1.38,5.74,1.73c2.37,0.35,5.09,0.58,8.14,0.67c3.05,0.1,6.15,0.28,9.3,0.53
				c3.15,0.25,6.25,0.66,9.3,1.24c3.05,0.58,5.76,1.53,8.14,2.85c2.37,1.33,4.29,3.11,5.74,5.36s2.18,5.18,2.18,8.77
				c0,3.3-0.83,6.53-2.48,9.68c-1.65,3.15-4.04,5.95-7.16,8.4c-3.13,2.45-6.94,4.41-11.44,5.89c-4.5,1.47-9.63,2.21-15.38,2.21
				c-5.7,0-10.66-0.55-14.89-1.65c-4.23-1.1-7.75-2.59-10.58-4.46c-2.83-1.88-4.92-4.04-6.3-6.49c-1.38-2.45-2.06-5-2.06-7.65
				c0-3.6,1.14-6.68,3.41-9.23s5.36-4.55,9.26-6c-2.1-1-3.79-2.37-5.06-4.13c-1.27-1.75-1.91-4.05-1.91-6.9
				c0-2.25,0.83-4.6,2.47-7.05c1.65-2.45,4.13-4.52,7.42-6.22c-3.8-2.1-6.8-4.89-9-8.36c-2.2-3.47-3.3-7.54-3.3-12.19
				c0-3.8,0.74-7.22,2.21-10.27c1.47-3.05,3.54-5.65,6.19-7.8c2.65-2.15,5.79-3.8,9.41-4.95c3.63-1.15,7.59-1.73,11.89-1.73
				c6.6,0,12.35,1.38,17.25,4.13H1066.65z M1050.45,250.11c0-1.7-0.49-3.06-1.46-4.09c-0.98-1.02-2.29-1.82-3.94-2.4
				c-1.65-0.57-3.58-1-5.78-1.28c-2.2-0.27-4.54-0.47-7.01-0.6c-2.47-0.12-5-0.25-7.58-0.38c-2.58-0.12-5.06-0.36-7.46-0.71
				c-2.4,1.25-4.36,2.75-5.89,4.5c-1.53,1.75-2.29,3.77-2.29,6.08c0,1.5,0.39,2.9,1.16,4.2c0.77,1.3,1.97,2.42,3.6,3.37
				c1.63,0.95,3.7,1.7,6.23,2.25c2.52,0.55,5.56,0.82,9.11,0.82c7.1,0,12.42-1.1,15.97-3.3
				C1048.67,256.38,1050.45,253.56,1050.45,250.11z M1028.02,207.43c5,0,8.75-1.28,11.25-3.83c2.5-2.55,3.75-5.87,3.75-9.98
				c0-4.2-1.25-7.52-3.75-9.98c-2.5-2.45-6.25-3.67-11.25-3.67c-4.95,0-8.69,1.23-11.21,3.67c-2.53,2.45-3.79,5.78-3.79,9.98
				c0,2,0.32,3.85,0.97,5.55c0.65,1.7,1.6,3.16,2.85,4.39c1.25,1.23,2.81,2.18,4.69,2.85S1025.57,207.43,1028.02,207.43z"/>
			<path class="st0" d="M1089.82,209.38c0.2,4.35,0.87,8.11,2.02,11.29c1.15,3.18,2.69,5.81,4.61,7.91s4.22,3.66,6.9,4.69
				c2.67,1.03,5.66,1.54,8.96,1.54c3.15,0,5.87-0.36,8.17-1.09c2.3-0.72,4.3-1.52,6-2.4c1.7-0.87,3.15-1.67,4.35-2.4
				c1.2-0.72,2.3-1.09,3.3-1.09c1.3,0,2.3,0.5,3,1.5l4.58,5.92c-1.9,2.25-4.05,4.15-6.45,5.7c-2.4,1.55-4.95,2.81-7.65,3.79
				c-2.7,0.97-5.48,1.67-8.33,2.1c-2.85,0.42-5.63,0.64-8.33,0.64c-5.3,0-10.21-0.89-14.74-2.66c-4.53-1.77-8.45-4.39-11.78-7.84
				s-5.92-7.73-7.8-12.83c-1.88-5.1-2.81-10.97-2.81-17.63c0-5.3,0.84-10.25,2.51-14.85c1.67-4.6,4.07-8.6,7.2-12
				c3.12-3.4,6.92-6.09,11.4-8.06c4.47-1.97,9.54-2.96,15.19-2.96c4.7,0,9.05,0.76,13.05,2.29c4,1.53,7.45,3.76,10.35,6.71
				c2.9,2.95,5.16,6.56,6.79,10.84c1.63,4.27,2.44,9.14,2.44,14.59c0,2.5-0.28,4.18-0.82,5.02c-0.55,0.85-1.55,1.27-3,1.27H1089.82z
				 M1128.29,199.48c0-2.7-0.39-5.21-1.16-7.54c-0.78-2.32-1.91-4.35-3.41-6.07c-1.5-1.73-3.36-3.08-5.59-4.05
				c-2.23-0.98-4.79-1.46-7.69-1.46c-5.85,0-10.45,1.68-13.8,5.02c-3.35,3.35-5.47,8.05-6.38,14.1H1128.29z"/>
			<path class="st0" d="M634.5,426.36h-13.58c-1.55,0-2.8-0.39-3.75-1.16c-0.95-0.78-1.68-1.74-2.17-2.89l-9-23.85h-46.5l-9,23.85
				c-0.4,1-1.1,1.92-2.1,2.77c-1,0.85-2.25,1.28-3.75,1.28h-13.58l42.83-108h17.77L634.5,426.36z M601.27,385.86l-14.85-39.45
				c-1.2-3.05-2.43-6.92-3.67-11.63c-0.55,2.35-1.15,4.51-1.8,6.49c-0.65,1.98-1.25,3.71-1.8,5.21l-14.85,39.38H601.27z"/>
			<path class="st0" d="M705.3,349.86l-30.75,76.5H660l-30.75-76.5h13.27c1.25,0,2.29,0.31,3.11,0.94c0.82,0.63,1.36,1.36,1.61,2.21
				l16.95,44.55c0.7,2.1,1.32,4.17,1.88,6.22c0.55,2.05,1.02,4.13,1.42,6.23c0.4-2.1,0.89-4.16,1.46-6.19
				c0.57-2.03,1.21-4.11,1.91-6.26l17.25-44.55c0.3-0.9,0.85-1.65,1.65-2.25c0.8-0.6,1.77-0.9,2.93-0.9H705.3z"/>
			<path class="st0" d="M712.73,360.51c8.65-8.05,18.95-12.08,30.9-12.08c4.4,0,8.31,0.71,11.74,2.14s6.3,3.44,8.63,6.04
				c2.33,2.6,4.1,5.69,5.33,9.26c1.22,3.58,1.84,7.54,1.84,11.89v48.6h-7.2c-1.55,0-2.73-0.24-3.53-0.71
				c-0.8-0.47-1.47-1.44-2.02-2.89l-1.58-6.23c-1.95,1.75-3.88,3.31-5.78,4.69c-1.9,1.38-3.86,2.54-5.89,3.49
				c-2.03,0.95-4.2,1.66-6.53,2.14c-2.33,0.47-4.89,0.71-7.69,0.71c-3.1,0-5.99-0.43-8.66-1.28c-2.68-0.85-4.99-2.14-6.94-3.86
				c-1.95-1.72-3.49-3.86-4.61-6.41c-1.13-2.55-1.69-5.55-1.69-9c0-2.95,0.79-5.82,2.36-8.63c1.57-2.8,4.17-5.31,7.8-7.54
				c3.62-2.22,8.4-4.06,14.33-5.51c5.92-1.45,13.24-2.27,21.94-2.47v-5.1c0-5.5-1.18-9.6-3.53-12.3c-2.35-2.7-5.8-4.05-10.35-4.05
				c-3.1,0-5.7,0.39-7.8,1.16c-2.1,0.78-3.93,1.61-5.47,2.51c-1.55,0.9-2.92,1.74-4.13,2.51c-1.2,0.78-2.47,1.16-3.83,1.16
				c-1.1,0-2.04-0.29-2.81-0.86c-0.78-0.57-1.41-1.29-1.91-2.14L712.73,360.51z M755.48,392.91c-5.75,0.2-10.6,0.66-14.55,1.39
				c-3.95,0.73-7.15,1.65-9.6,2.78c-2.45,1.13-4.21,2.46-5.29,4.01c-1.08,1.55-1.61,3.25-1.61,5.1c0,1.8,0.29,3.34,0.86,4.61
				c0.57,1.28,1.37,2.33,2.4,3.15c1.02,0.82,2.22,1.42,3.6,1.8c1.37,0.38,2.89,0.56,4.54,0.56c4.2,0,7.81-0.79,10.84-2.36
				c3.02-1.58,5.96-3.86,8.81-6.86V392.91z"/>
			<path class="st0" d="M809.47,326.76c0,1.45-0.29,2.83-0.86,4.13c-0.58,1.3-1.36,2.44-2.36,3.41c-1,0.98-2.16,1.75-3.49,2.33
				c-1.33,0.58-2.74,0.86-4.24,0.86c-1.45,0-2.81-0.29-4.09-0.86c-1.27-0.57-2.39-1.35-3.34-2.33c-0.95-0.97-1.71-2.11-2.29-3.41
				c-0.58-1.3-0.86-2.67-0.86-4.13c0-1.5,0.29-2.9,0.86-4.2c0.57-1.3,1.34-2.44,2.29-3.41c0.95-0.98,2.06-1.75,3.34-2.33
				c1.28-0.57,2.64-0.86,4.09-0.86c1.5,0,2.91,0.29,4.24,0.86c1.32,0.58,2.49,1.35,3.49,2.33c1,0.97,1.79,2.11,2.36,3.41
				C809.19,323.86,809.47,325.26,809.47,326.76z M806.77,349.86v76.5h-16.13v-76.5H806.77z"/>
			<path class="st0" d="M843.52,315.36v111H827.4v-111H843.52z"/>
			<path class="st0" d="M861.6,360.51c8.65-8.05,18.95-12.08,30.9-12.08c4.4,0,8.31,0.71,11.74,2.14c3.42,1.42,6.3,3.44,8.63,6.04
				c2.32,2.6,4.1,5.69,5.32,9.26c1.22,3.58,1.84,7.54,1.84,11.89v48.6h-7.2c-1.55,0-2.73-0.24-3.53-0.71
				c-0.8-0.47-1.48-1.44-2.03-2.89l-1.58-6.23c-1.95,1.75-3.88,3.31-5.77,4.69c-1.9,1.38-3.86,2.54-5.89,3.49
				c-2.03,0.95-4.2,1.66-6.53,2.14c-2.32,0.47-4.89,0.71-7.69,0.71c-3.1,0-5.99-0.43-8.66-1.28c-2.68-0.85-4.99-2.14-6.94-3.86
				s-3.49-3.86-4.61-6.41c-1.13-2.55-1.69-5.55-1.69-9c0-2.95,0.79-5.82,2.36-8.63c1.58-2.8,4.17-5.31,7.8-7.54
				c3.63-2.22,8.4-4.06,14.33-5.51c5.92-1.45,13.24-2.27,21.94-2.47v-5.1c0-5.5-1.18-9.6-3.53-12.3c-2.35-2.7-5.8-4.05-10.35-4.05
				c-3.1,0-5.7,0.39-7.8,1.16c-2.1,0.78-3.93,1.61-5.48,2.51c-1.55,0.9-2.92,1.74-4.13,2.51c-1.2,0.78-2.47,1.16-3.82,1.16
				c-1.1,0-2.04-0.29-2.81-0.86c-0.78-0.57-1.41-1.29-1.91-2.14L861.6,360.51z M904.35,392.91c-5.75,0.2-10.6,0.66-14.55,1.39
				c-3.95,0.73-7.15,1.65-9.6,2.78c-2.45,1.13-4.21,2.46-5.29,4.01c-1.08,1.55-1.61,3.25-1.61,5.1c0,1.8,0.29,3.34,0.86,4.61
				c0.57,1.28,1.38,2.33,2.4,3.15c1.02,0.82,2.22,1.42,3.6,1.8c1.38,0.38,2.89,0.56,4.54,0.56c4.2,0,7.81-0.79,10.84-2.36
				c3.02-1.58,5.96-3.86,8.81-6.86V392.91z"/>
			<path class="st0" d="M954.97,359.99c3.15-3.45,6.67-6.2,10.58-8.25c3.9-2.05,8.35-3.08,13.35-3.08c4.45,0,8.46,0.86,12.04,2.59
				c3.57,1.72,6.61,4.21,9.11,7.46c2.5,3.25,4.42,7.19,5.77,11.81c1.35,4.63,2.03,9.84,2.03,15.64c0,6.2-0.76,11.84-2.29,16.91
				c-1.53,5.08-3.71,9.42-6.56,13.05c-2.85,3.63-6.3,6.42-10.35,8.4s-8.58,2.96-13.58,2.96c-2.45,0-4.68-0.24-6.67-0.71
				c-2-0.47-3.85-1.16-5.55-2.06c-1.7-0.9-3.26-1.97-4.69-3.22c-1.42-1.25-2.79-2.67-4.09-4.28l-0.67,5.93
				c-0.25,1.15-0.7,1.98-1.35,2.47c-0.65,0.5-1.55,0.75-2.7,0.75h-10.5v-111h16.13V359.99z M954.97,407.16
				c2.25,2.9,4.71,4.94,7.39,6.11c2.67,1.18,5.59,1.76,8.74,1.76c6.35,0,11.3-2.3,14.85-6.9c3.55-4.6,5.33-11.72,5.33-21.38
				c0-8.8-1.54-15.23-4.61-19.28s-7.46-6.08-13.16-6.08c-3.95,0-7.39,0.89-10.31,2.66c-2.92,1.78-5.66,4.31-8.21,7.61V407.16z"/>
			<path class="st0" d="M1039.87,315.36v111h-16.12v-111H1039.87z"/>
			<path class="st0" d="M1071.52,389.39c0.2,4.35,0.87,8.11,2.02,11.29c1.15,3.18,2.69,5.81,4.61,7.91c1.92,2.1,4.22,3.66,6.9,4.69
				c2.67,1.03,5.66,1.54,8.96,1.54c3.15,0,5.87-0.36,8.17-1.09c2.3-0.72,4.3-1.52,6-2.4c1.7-0.88,3.15-1.67,4.35-2.4
				c1.2-0.72,2.3-1.09,3.3-1.09c1.3,0,2.3,0.5,3,1.5l4.58,5.93c-1.9,2.25-4.05,4.15-6.45,5.7c-2.4,1.55-4.95,2.81-7.65,3.79
				c-2.7,0.97-5.48,1.67-8.33,2.1s-5.63,0.64-8.33,0.64c-5.3,0-10.21-0.89-14.74-2.66c-4.53-1.77-8.45-4.39-11.78-7.84
				s-5.92-7.72-7.8-12.83c-1.88-5.1-2.81-10.97-2.81-17.63c0-5.3,0.84-10.25,2.51-14.85c1.67-4.6,4.07-8.6,7.2-12
				c3.12-3.4,6.92-6.09,11.4-8.06c4.47-1.97,9.54-2.96,15.19-2.96c4.7,0,9.05,0.76,13.05,2.29c4,1.53,7.45,3.76,10.35,6.71
				c2.9,2.95,5.16,6.56,6.79,10.84s2.44,9.14,2.44,14.59c0,2.5-0.28,4.17-0.82,5.02c-0.55,0.85-1.55,1.28-3,1.28H1071.52z
				 M1109.99,379.49c0-2.7-0.39-5.21-1.16-7.54c-0.78-2.33-1.91-4.35-3.41-6.08s-3.36-3.08-5.59-4.05
				c-2.23-0.98-4.79-1.46-7.69-1.46c-5.85,0-10.45,1.68-13.8,5.03c-3.35,3.35-5.47,8.05-6.38,14.1H1109.99z"/>
		</g>
	</g>
</g>
</svg>
